<svg width="960" height="720" viewBox="0 0 960 720" fill="none" xmlns="http://www.w3.org/2000/svg">
  <defs>
    <linearGradient id="grad" x1="0" y1="0" x2="1" y2="1">
      <stop offset="0" stop-color="#f4f4f5" />
      <stop offset="1" stop-color="#e5e7eb" />
    </linearGradient>
    <linearGradient id="accent" x1="0" y1="0" x2="0" y2="1">
      <stop offset="0" stop-color="#d4af37" stop-opacity="0.28" />
      <stop offset="1" stop-color="#d4af37" stop-opacity="0.08" />
    </linearGradient>
  </defs>
  <rect width="960" height="720" fill="url(#grad)" rx="32" />
  <g opacity="0.24">
    <circle cx="160" cy="120" r="140" fill="url(#accent)" />
    <circle cx="820" cy="640" r="180" fill="url(#accent)" />
  </g>
  <g transform="translate(240 180)" fill="#0f172a" fill-opacity="0.18">
    <rect x="0" y="60" width="120" height="320" rx="12" />
    <rect x="160" width="140" height="380" rx="12" />
    <rect x="340" y="40" width="120" height="340" rx="12" />
  </g>
  <g transform="translate(240 180)">
    <rect x="36" y="140" width="48" height="48" rx="8" fill="#1f2937" fill-opacity="0.18" />
    <rect x="76" y="220" width="48" height="48" rx="8" fill="#1f2937" fill-opacity="0.18" />
    <rect x="196" y="60" width="48" height="48" rx="8" fill="#1f2937" fill-opacity="0.18" />
    <rect x="276" y="60" width="48" height="48" rx="8" fill="#1f2937" fill-opacity="0.18" />
    <rect x="196" y="140" width="48" height="48" rx="8" fill="#1f2937" fill-opacity="0.18" />
    <rect x="276" y="140" width="48" height="48" rx="8" fill="#1f2937" fill-opacity="0.18" />
    <rect x="196" y="220" width="48" height="48" rx="8" fill="#1f2937" fill-opacity="0.18" />
    <rect x="276" y="220" width="48" height="48" rx="8" fill="#1f2937" fill-opacity="0.18" />
    <rect x="356" y="120" width="48" height="48" rx="8" fill="#1f2937" fill-opacity="0.18" />
    <rect x="396" y="200" width="48" height="48" rx="8" fill="#1f2937" fill-opacity="0.18" />
  </g>
  <text x="480" y="560" text-anchor="middle" font-family="'Segoe UI', 'Helvetica Neue', Arial, sans-serif" font-size="36" fill="#4b5563" fill-opacity="0.8">
    Imagen referencial
  </text>
</svg>
