<svg xmlns="http://www.w3.org/2000/svg" viewBox="0 0 32 32" width="32" height="32" role="img" aria-hidden="true">
  <path fill="#FFFFFF" d="M16 .7A15.3 15.3 0 0 0 2.6 24.3L.7 31.3l7-1.8A15.3 15.3 0 1 0 16 .7Zm8.7 23.9a12.8 12.8 0 0 1-6.8 3.6c-2.4.4-4.8.1-7-.8l-.4-.2-4.2 1.1 1.1-4.1-.2-.4a12.8 12.8 0 1 1 17.5 4.8Zm-1.6-5.6c-.1-.3-.6-.5-1.2-.8s-2.1-1-2.4-1.1-.6-.2-.9.3-1 1.1-1.2 1.2-.4.2-.8.1a10.5 10.5 0 0 1-3.1-1.9 11.5 11.5 0 0 1-2.1-2.5c-.2-.3 0-.5.2-.7l.6-.7c.2-.2.2-.3.3-.6a.6.6 0 0 0 0-.6c0-.2-.8-2-1.1-2.7s-.6-.6-.8-.6h-.7a1.4 1.4 0 0 0-1 .5 4.2 4.2 0 0 0-1.3 3.1 7.4 7.4 0 0 0 1.6 3.9 16.9 16.9 0 0 0 6.5 5.6 22.2 22.2 0 0 0 2.2.8 5.3 5.3 0 0 0 2.5.2 4.1 4.1 0 0 0 2.7-1.9c.2-.4.2-.8.1-1Z"/>
</svg>
